<svg width="128" height="128" viewBox="0 0 128 128" fill="none" xmlns="http://www.w3.org/2000/svg">
    <rect width="128" height="128" rx="30" fill="#E20000"/>
    <path d="M55.8399 19.12C36.6671 19.12 21.1599 34.6272 21.1599 53.8C21.1599 72.9728 36.6671 88.48 55.8399 88.48C62.6851 88.48 69.0202 86.4719 74.3912 83.0613L99.4449 108.115L108.115 99.445L83.3799 74.7738C87.8265 68.9406 90.5199 61.713 90.5199 53.8C90.5199 34.6272 75.0127 19.12 55.8399 19.12ZM55.8399 27.28C70.5263 27.28 82.3599 39.1136 82.3599 53.8C82.3599 68.4864 70.5263 80.32 55.8399 80.32C41.1535 80.32 29.3199 68.4864 29.3199 53.8C29.3199 39.1136 41.1535 27.28 55.8399 27.28Z" fill="white"/>
</svg>
